<?xml version="1.0" standalone="no"?>
<svg xmlns="http://www.w3.org/2000/svg" viewBox="0 0 90.456 29" width="90.456" height="29"><g fill="#3A9E3E" color="#3A9E3E" transform="translate(0, 0) scale(0.29)"><svg width="100.0" height="100.0" x="0.0" y="0.0" viewBox="0 0 100 100"><g><g><path d="M72.716,65.745c-0.055-0.627-0.136-1.574-2.655-1.891c-0.497-0.062-1.16-0.1-1.969-0.113    c-2.447-0.041-4.853-0.062-7.269-0.071c-1.545-0.005-3.065,0.01-4.727-0.02c-0.939-0.015-1.898-0.027-2.789,0.018    c-2.975,0.157-2.966,1.146-2.961,1.82c0.001,0.309-0.083,0.622-0.167,0.937c-0.141,0.536-0.287,1.09-0.07,1.652    c0.068,0.177,0.185,0.348,0.306,0.518c0.108,0.153,0.223,0.306,0.261,0.464c0.031,0.124,0.044,0.243,0.059,0.359    c0.031,0.251,0.065,0.494,0.206,0.757c0.258,0.48,0.691,1.283,2.756,1.471c3.22,0.293,6.97,0.335,10.536,0.353L64.845,72    c2.382,0,5.712-0.096,7.119-0.927c0.786-0.463,0.768-0.938,0.752-1.358l-0.004-0.196c0.004-0.356,0.072-0.721,0.14-1.087    c0.134-0.728,0.273-1.481-0.048-2.208C72.741,66.08,72.731,65.915,72.716,65.745z"></path><path d="M45.783,48.832l-0.215-0.185c-1.484-1.273-3.086-2.433-4.635-3.553c-0.855-0.618-1.71-1.237-2.548-1.875    c-0.653-0.498-1.284-1.059-1.896-1.601c-0.495-0.439-0.991-0.879-1.506-1.296c-0.267-0.216-0.529-0.466-0.794-0.717    c-1.086-1.031-2.574-2.443-4.405-0.968c-0.535,0.431-2.281,1.974-2.281,3.747c0,0.606,0.203,1.165,0.604,1.659    c1.016,1.255,2.729,2.338,4.239,3.293c0.388,0.245,0.757,0.479,1.09,0.701c1.647,1.097,3.038,2.358,4.686,3.894    c0.448,0.417,0.938,0.781,1.413,1.133c0.351,0.259,0.7,0.519,1.031,0.799l0.177,0.149c0.46,0.386,0.72,0.613,0.72,0.791    c0,0.095-0.053,0.288-0.305,0.666c-0.253,0.379-0.81,0.782-1.349,1.172c-0.435,0.315-0.885,0.641-1.212,0.982    c-0.392,0.408-0.753,0.847-1.113,1.287c-0.398,0.486-0.775,0.944-1.194,1.364c-0.591,0.591-1.262,1.116-1.973,1.671    c-0.66,0.516-1.342,1.049-1.975,1.653c-0.653,0.625-1.298,1.23-2.008,1.77c-1.154,0.876-1.64,1.832-1.437,2.795    c0.285,1.328,2.324,3.194,3.126,3.749c1.556,1.073,3.047-0.163,4.137-1.065c0.281-0.233,0.553-0.459,0.812-0.637l0.157-0.103    c1.589-0.981,2.816-2.175,4.115-3.44l0.312-0.303c0.474-0.46,0.95-0.909,1.424-1.354c2.153-2.028,4.188-3.943,5.674-6.594    c0.099-0.177,0.213-0.36,0.331-0.548c0.429-0.688,0.915-1.467,0.997-2.387C49.995,55.351,50,55.224,50,55.098v0    C50,52.438,47.563,50.354,45.783,48.832z"></path><path d="M88.066,31.011c-0.774-7.464-5.806-12.464-14.735-12.245c-1.229,0.03-1.904,0.373-2.188-0.204    c-2.952,0.314-5.914,0.434-8.892,0.237c-0.655-0.043-1.284-0.196-1.865-0.436c-0.624-0.027-1.242-0.02-1.816,0.044    c-3.716,0.414-7.465,0.086-11.089-0.326c-5.039-0.573-10.112,0.397-15.182,0.371c-4.438-0.023-9.177-0.094-13.387,1.671    c-5.614,2.355-6.178,9.067-6.398,14.149c-0.108,2.495,0.4,4.992-0.07,7.448c-0.073,0.383-0.148,0.778-0.148,1.184    c0,0.864-0.146,2.621-0.144,2.621C11.465,49.78,12,63.282,12.566,67.547l0.186,1.414c0.305,1.828,0.607,3.491,1.219,5.326    c0.083,0.247,0.204,0.495,0.328,0.742c0.102,0.203,0.205,0.405,0.3,0.674c0.129,0.259,0.333,0.502,0.452,0.633    c0.31,0.992,0.892,1.821,1.742,2.497c0.319,0.318,0.935,0.593,1.158,0.686c0.662,0.468,1.893,0.886,1.971,0.907    c0.151,0.076,0.282,0.151,0.404,0.222c0.359,0.207,0.7,0.404,1.211,0.429c0.375,0.146,1.016,0.26,1.174,0.284    c1.773,0.499,3.714,0.741,5.935,0.741c1.879,0,3.778-0.169,5.615-0.332c1.006-0.089,2.011-0.179,2.986-0.241    c0.513,0,1.026,0.037,1.54,0.074c1.853,0.133,3.703,0.004,5.443-0.156c1.213-0.112,15.038-0.218,16.161-0.219    c0.567,0.041,1.111,0.092,1.646,0.143c1.086,0.103,2.112,0.2,3.213,0.2c0.396,0,0.798-0.013,1.176-0.041    c0.495,0,0.994,0.008,1.495,0.017c2.508,0.042,5.164,0.118,7.84-0.952c0.538-0.215,1.07-0.5,1.539-0.752    c0.211-0.113,0.413-0.221,0.6-0.314c0.207-0.104,0.415-0.229,0.643-0.369c0.054,0.003,0.108,0.005,0.162,0.005    c1.062,0,2.126-0.659,3.278-2.043c0.223-0.312,0.514-0.679,0.832-1.079c0.741-0.934,1.663-2.096,2.223-3.219    c1.322-3.173,1.933-15.825,1.979-19.747l0.01-0.081l-0.004-0.426l0.05-0.4c0.13-1.028,0.253-1.999,0.253-2.962    c0-0.602-0.09-1.639-0.132-2.086c0.312-0.417,0.418-0.944,0.282-1.44l-0.004-0.595c-0.082-0.568-0.125-1.197-0.166-1.806    l-0.006-0.049c0.083-2.114,0.198-4.372,0.622-6.704C88.197,34.579,88.245,32.729,88.066,31.011z M83.109,40.958    c-0.044,0.264-0.084,0.529-0.084,0.74v4.275c0,0.406-0.033,0.813-0.067,1.238c-0.041,0.504-0.083,1.033-0.083,1.612    c0,0.195-0.079,0.658-0.142,0.965c-0.408,2.74-0.973,16.899-2.355,19.64c-0.467,1.111-1.058,2.322-1.619,3.321l-0.058,0.141    c-0.141,0.5-0.262,0.756-0.479,1.014l-0.147,0.174v0.056c-0.014,0.009-0.028,0.019-0.042,0.028    c-1.325,0.874-2.68,1.589-3.965,2.271c-1.286,0.509-2.843,0.574-4.056,0.574c-0.604,0-1.208-0.019-1.795-0.036    c-0.566-0.017-1.118-0.034-1.641-0.034c-2.02,0-4.151,0.135-6.212,0.264c-2.105,0.132-16.961,0.27-19.005,0.274    c-0.85-0.126-1.728-0.256-2.608-0.256c-0.396,0-0.761,0.026-1.076,0.074c-2.573,0.399-5.381,0.564-8.145,0.529    c-1.86-0.023-3.7-0.137-5.435-0.332c-0.387-0.364-0.812-0.68-1.295-0.961c-0.919-1.059-1.672-2.664-2.039-4.385    c-0.288-0.853-0.429-1.526-0.579-2.239l-0.038-0.122c-0.043-0.103-0.085-0.241-0.129-0.378c-0.078-0.245-0.156-0.494-0.269-0.685    c-0.001-0.633-0.018-1.285-0.15-1.952c-0.009-0.472-0.109-0.919-0.223-1.433l-0.076-0.349v-0.281c0-1.39-0.084-14.08-0.166-15.471    c-0.107-1.841-0.219-3.745-0.136-5.532c0.13-2.014,0.377-3.9,0.638-5.896l0.11-0.844c0.068-0.641,0.163-1.321,0.261-2.02    c0.07-0.496,0.141-1.003,0.205-1.513c1.327,0.127,2.575,0.279,4.288,0.491h1.95c0.4,0,0.884-0.118,1.081-0.17    c1.339,0.165,2.85,0.01,4.215-0.162c0.926-0.116,1.801-0.226,2.699-0.226c0.224,0,0.449,0.007,0.705,0.024    c1.247,0,2.208-0.042,3.197-0.086c1.033-0.045,2.096-0.092,3.567-0.092c4.826-0.168,22.369-0.044,28.115,0.356    c1.39,0,2.325-0.103,3.507-0.232c0.365-0.041,0.753-0.083,1.143-0.124c0.607,0,1.18,0.042,1.735,0.082    c1.195,0.086,2.355,0.115,3.277-0.086c0.957-0.141,2.196,0.083,3.252-0.273c0.018,0.381,0.033,0.742,0.047,1.065    c-0.04,0.413-0.079,0.826-0.097,1.146c-0.165,0.783-0.165,1.545-0.158,2.379c0.066,0.473,0.162,1.083,0.248,1.635    c0.098,0.629,0.186,1.178,0.195,1.297C83.175,40.596,83.14,40.777,83.109,40.958z"></path></g></g></svg></g><line x1="41" y1="1" x2="41" y2="28" stroke="#ffffff" stroke-linecap="round"></line><path fill="#ffffff" fill-rule="nonzero" d="M2.81 16.70L0.10 16.70Q0 16.70 0 16.58L0 16.58L0.05 0.10Q0.05 0 0.14 0L0.14 0L3.07 0Q3.17 0 3.24 0.10L3.24 0.10L5.42 3.26L7.61 0.10Q7.68 0 7.78 0L7.78 0L10.73 0Q10.82 0 10.82 0.10L10.82 0.10L10.87 16.58Q10.87 16.70 10.78 16.70L10.78 16.70L8.06 16.70Q7.97 16.70 7.97 16.58L7.97 16.58L7.94 4.34L5.42 7.99L2.93 4.34L2.90 16.58Q2.90 16.70 2.81 16.70L2.81 16.70ZM16.18 16.58L16.18 16.58L19.15 0.10Q19.18 0 19.27 0L19.27 0L22.75 0Q22.85 0 22.87 0.10L22.87 0.10L25.73 16.58Q25.75 16.70 25.63 16.70L25.63 16.70L22.97 16.70Q22.87 16.70 22.85 16.58L22.85 16.58L22.58 14.83L19.32 14.83L19.06 16.58Q19.03 16.70 18.94 16.70L18.94 16.70L16.27 16.70Q16.18 16.70 16.18 16.58ZM20.88 5.52L19.80 12.26L22.10 12.26L21.12 5.52L20.98 4.63L20.88 5.52ZM36.14 16.70L33.43 16.70Q33.34 16.70 33.34 16.58L33.34 16.58L33.34 2.90L30.22 2.90Q30.10 2.90 30.10 2.78L30.10 2.78L30.12 0.10Q30.12 0 30.22 0L30.22 0L39.34 0Q39.46 0 39.46 0.10L39.46 0.10L39.46 2.78Q39.46 2.90 39.36 2.90L39.36 2.90L36.22 2.90L36.24 16.58Q36.24 16.70 36.14 16.70L36.14 16.70Z" transform="translate(51, 6.148)"></path></svg>